<?xml version="1.0" encoding="utf-8"?>
<!-- Generator: Adobe Illustrator 15.1.0, SVG Export Plug-In . SVG Version: 6.00 Build 0)  -->
<!DOCTYPE svg PUBLIC "-//W3C//DTD SVG 1.1//EN" "http://www.w3.org/Graphics/SVG/1.1/DTD/svg11.dtd">
<svg version="1.1" id="Layer_1" xmlns="http://www.w3.org/2000/svg" xmlns:xlink="http://www.w3.org/1999/xlink" x="0px" y="0px"
	 width="792px" height="612px" viewBox="0 0 792 612" enable-background="new 0 0 792 612" xml:space="preserve">
<path fill-rule="evenodd" clip-rule="evenodd" stroke="#000000" stroke-width="2.9999" stroke-linecap="round" stroke-linejoin="round" stroke-miterlimit="22.9256" d="
	M101.781,454.577c19.757-10.937,45.551-25.205,75.46-50.862c29.91-25.656,63.936-62.7,86.711-92.609
	c22.775-29.91,34.299-52.685,45.344-74.088c11.044-21.403,21.608-41.434,28.4-53.645s9.81-16.601,12.622-15.915
	c2.813,0.686,5.42,6.448,7.409,10.838c1.99,4.391,3.362,7.409,8.712-0.254c5.351-7.664,14.681-26.009,23.187-44.806
	s16.189-38.044,20.251-47.256c4.063-9.212,4.503-8.389,7.658-2.489c3.155,5.9,9.026,16.875,19.508,36.632
	s25.573,48.294,36.755,69.835c11.182,21.541,18.454,36.084,22.707,39.651c4.253,3.567,5.488-3.841,6.657-7.011
	c1.17-3.169,2.273-2.099,6.801,2.292c4.528,4.39,12.479,12.101,27.156,32.694c14.678,20.594,36.081,54.071,55.563,78.629
	s37.044,40.2,54.605,55.429c17.562,15.229,35.123,30.047,55.703,40.749c20.58,10.701,44.179,17.287,51.176,21.54
	s-2.606,6.174-17.424,7.409c-14.818,1.234-34.85,1.783-59.957-0.824c-25.107-2.606-55.292-8.368-57.762-4.802
	c-2.47,3.567,22.775,16.464,29.772,23.324c6.998,6.86-4.253,7.684-23.461,5.488s-46.374-7.409-68.875-9.604
	c-22.5-2.195-40.336-1.372-52.547,4.116s-18.797,15.641-41.435,27.165c-22.639,11.525-61.329,24.423-76.284,27.166
	c-14.955,2.744-6.174-4.665-0.412-13.445c5.763-8.781,8.507-18.934-2.332-21.814c-10.839-2.882-35.261,1.509-69.835,6.448
	s-79.302,10.427-107.427,13.171c-28.126,2.744-39.651,2.744-38.69-2.332c0.96-5.077,14.406-15.229,10.976-19.346
	c-3.43-4.115-23.736-2.195-53.645-2.47c-29.91-0.274-69.424-2.743-82.732-5.253s-0.412-5.059,12.897-10.135
	C68.304,473.117,82.024,465.513,101.781,454.577z"/>
</svg>
